<?xml version="1.0" encoding="UTF-8"?>
<svg id="Layer_1" xmlns="http://www.w3.org/2000/svg" version="1.1" viewBox="0 0 1500 1689.38">
  <!-- Generator: Adobe Illustrator 30.3.0, SVG Export Plug-In . SVG Version: 2.1.3 Build 182)  -->
  <style>
    .curtain {fill: #020202;}
    .lampdrawing {fill: #020202;}
    .street {fill: #020202;}
    .lamp {fill: #020202;}
    .auditions {fill: #020202;}
  </style>
  <g>
    <path class="curtain" d="M1315.82,76.28v956.28h-259.08c0-242.15,93.17-430.39,133.23-500.08l42.65-74.2-73.14-44.44c-34.42-20.91-102.39-64.17-170.86-118.9-79.61-63.61-133.93-121.71-161.49-172.68l-24.86-45.99h513.55Z"/>
    <path class="curtain" d="M184.18,1032.56h259.08c0-242.17-93.17-430.39-133.23-500.07l-42.65-74.2,73.14-44.44c34.42-20.91,102.39-64.17,170.85-118.89,79.61-63.62,133.94-121.72,161.5-172.69l24.86-45.98H184.18v956.28Z"/>
    <path class="lampdrawing" d="M793.98,1032.56h175.08c0-265.62,104.07-472.75,144.89-543.77-36.94-22.44-108.08-67.8-180.07-125.33-89.22-71.3-150.67-138.03-183.89-199.48-33.22,61.45-94.66,128.18-183.89,199.48-71.99,57.54-143.13,102.89-180.07,125.33,40.82,71.02,144.89,278.15,144.89,543.77h175.22v87.69H184.18v87.69h1131.65v-87.69h-521.85v-87.69ZM793.98,487.29l228.52,51.56c-40.21,86.81-94.02,231.4-108.22,406.03h-120.3v-457.58ZM585.72,944.88c-14.2-174.63-68.01-319.22-108.22-406.03l228.78-51.62-.13,457.64h-120.43Z"/>
    <g>
      <path class="street" d="M194.02,1383.57c4.76,3.02,9.68,5.31,14.76,6.88,5.08,1.57,9.97,2.35,14.67,2.35,1.97,0,3.67-.13,5.1-.39,1.42-.26,2.6-.64,3.53-1.13.93-.49,1.6-1.12,2-1.87.41-.75.61-1.62.61-2.61,0-1.62-.73-3.08-2.18-4.35-1.45-1.28-3.35-2.51-5.7-3.7-2.35-1.19-5.05-2.41-8.1-3.66-3.05-1.25-6.14-2.67-9.27-4.27-3.13-1.6-6.23-3.44-9.27-5.53-3.05-2.09-5.75-4.56-8.1-7.4-2.35-2.84-4.25-6.17-5.7-9.97-1.45-3.8-2.18-8.2-2.18-13.19,0-5.98,1.09-11.38,3.27-16.2,2.18-4.82,5.3-8.93,9.36-12.32,4.06-3.4,8.98-6.01,14.76-7.84,5.78-1.83,12.29-2.74,19.55-2.74s13.34.73,18.94,2.18c5.6,1.45,10.87,3.57,15.81,6.36l-8.17,29.61c-4.11-2.15-8.31-3.9-12.6-5.27-4.29-1.36-8.63-2.05-13.04-2.05-1.51,0-2.86.12-4.04.35s-2.19.58-3,1.04c-.81.47-1.43,1.04-1.87,1.74s-.65,1.51-.65,2.44c0,1.51.72,2.86,2.17,4.05,1.45,1.19,3.35,2.35,5.69,3.48,2.35,1.13,5.03,2.31,8.04,3.53,3.01,1.22,6.1,2.61,9.26,4.18,3.16,1.57,6.24,3.4,9.26,5.49,3.01,2.09,5.69,4.59,8.04,7.49,2.35,2.9,4.25,6.27,5.69,10.1,1.45,3.83,2.17,8.3,2.17,13.41,0,6.04-1.19,11.51-3.57,16.41-2.38,4.91-5.7,9.1-9.97,12.58-4.27,3.48-9.38,6.18-15.33,8.1-5.95,1.92-12.5,2.87-19.64,2.87-7.9,0-14.89-.87-20.99-2.61-6.1-1.74-11.76-4.32-16.98-7.75l7.66-29.78Z"/>
      <path class="street" d="M368.44,1329.84h-29.61v91.7h-38.32v-91.7h-29.61v-32.05h97.53v32.05Z"/>
      <path class="street" d="M380.2,1297.79c5.46-.29,10.84-.52,16.15-.7,5.31-.17,10.58-.26,15.81-.26,10.85,0,20.46,1,28.82,3,8.36,2,15.4,4.89,21.12,8.67,5.72,3.77,10.06,8.38,13.02,13.8,2.96,5.43,4.44,11.57,4.44,18.42,0,3.43-.38,6.66-1.13,9.71-.75,3.05-1.87,5.91-3.35,8.58-1.48,2.67-3.29,5.17-5.44,7.49-2.15,2.32-4.61,4.44-7.4,6.36,3.6,7.08,7.15,14.7,10.67,22.86,3.51,8.16,6.92,16.76,10.23,25.82h-41.89c-2.03-5.92-4.3-11.94-6.79-18.07-2.5-6.12-5.23-12.24-8.19-18.33-1.29.17-2.57.3-3.83.39-1.26.09-2.57.19-3.92.3v35.7h-38.32v-123.75ZM418.52,1356.66h1.4c3.32,0,6.25-.33,8.79-1,2.54-.67,4.66-1.61,6.38-2.82,1.72-1.22,3.02-2.72,3.89-4.52.87-1.79,1.31-3.82,1.31-6.08,0-2.14-.44-4.07-1.31-5.77s-2.17-3.17-3.89-4.38c-1.72-1.21-3.85-2.14-6.38-2.78-2.54-.64-5.46-.96-8.79-.96h-1.4v28.3Z"/>
      <path class="street" d="M574.22,1329.32h-42.5v14.37h40.15v31.52h-40.15v14.8h42.5v31.52h-80.81v-123.75h80.81v31.52Z"/>
      <path class="street" d="M670.01,1329.32h-42.5v14.37h40.15v31.52h-40.15v14.8h42.5v31.52h-80.81v-123.75h80.81v31.52Z"/>
      <path class="street" d="M777.21,1329.84h-29.61v91.7h-38.32v-91.7h-29.61v-32.05h97.53v32.05Z"/>
      <path class="lamp" d="M870.83,1389.41h36.05v32.13h-74.37v-123.75h38.32v91.61Z"/>
      <path class="lamp" d="M994.2,1297.79c7.61,20.38,14.41,41,20.39,61.87,5.98,20.87,10.72,41.49,14.21,61.87h-39.45c-.47-3.13-.95-6.28-1.44-9.45-.5-3.16-1.03-6.31-1.61-9.45h-33.34c-.58,3.25-1.12,6.43-1.61,9.54-.5,3.11-.97,6.23-1.44,9.36h-38.32c3.48-20.38,8.22-41,14.23-61.87,6-20.87,12.81-41.5,20.41-61.87h47.98ZM979.92,1372.86c-1.46-6.1-3.06-12.19-4.8-18.29-1.75-6.1-3.55-12.13-5.41-18.11-1.98,5.98-3.84,12.02-5.59,18.11-1.75,6.1-3.35,12.19-4.8,18.29h20.6Z"/>
      <path class="lamp" d="M1191.98,1297.79c1.8,11.26,3.34,22.21,4.62,32.83,1.28,10.62,2.32,21.05,3.14,31.26.81,10.22,1.44,20.28,1.87,30.17.43,9.9.77,19.73,1,29.48h-38.49c-.23-7.43-.5-14.86-.79-22.29-.29-7.43-.63-14.79-1.01-22.08-.38-7.28-.83-14.44-1.36-21.47-.53-7.02-1.14-13.85-1.85-20.47l-19.85,86.3h-40.49l-19.77-86.3c-.69,6.62-1.3,13.44-1.81,20.47-.52,7.02-.98,14.18-1.38,21.47-.4,7.29-.73,14.65-.99,22.08-.26,7.43-.5,14.86-.73,22.29h-37.45c.23-9.75.56-19.58,1-29.48.43-9.9,1.07-19.95,1.91-30.17.84-10.22,1.88-20.64,3.13-31.26,1.25-10.63,2.8-21.57,4.65-32.83h54.13l18.55,80.55,18.37-80.55h53.59Z"/>
      <path class="lamp" d="M1217.51,1297.79c6.39-.41,12.08-.67,17.07-.78,4.99-.12,9.78-.17,14.37-.17,10.57,0,19.99,1.06,28.26,3.18,8.27,2.12,15.27,5.2,20.99,9.23,5.72,4.04,10.09,8.96,13.11,14.76,3.02,5.81,4.53,12.4,4.53,19.77s-1.37,13.77-4.1,19.55c-2.73,5.78-6.67,10.75-11.82,14.94-5.15,4.18-11.39,7.52-18.75,10.01-7.36,2.5-15.63,4.06-24.81,4.7h-.52v28.56h-38.32v-123.75ZM1255.82,1361.28h1.22c2.97,0,5.66-.38,8.05-1.13,2.39-.75,4.43-1.83,6.12-3.22,1.69-1.39,3-3.11,3.94-5.14.93-2.03,1.4-4.35,1.4-6.97,0-2.44-.41-4.63-1.22-6.57-.82-1.94-2.04-3.61-3.67-5.01-1.63-1.39-3.67-2.45-6.12-3.18-2.45-.72-5.28-1.09-8.48-1.09h-1.22v32.31Z"/>
    </g>
  </g>
  <g>
    <path class="auditions" d="M356.75,1513.58c7.61,20.38,14.41,41,20.39,61.87,5.98,20.87,10.72,41.5,14.21,61.87h-39.45c-.47-3.14-.95-6.28-1.44-9.45-.5-3.16-1.03-6.31-1.61-9.45h-33.34c-.58,3.25-1.12,6.43-1.62,9.54-.5,3.11-.97,6.23-1.44,9.36h-38.32c3.48-20.38,8.22-41,14.23-61.87,6-20.87,12.81-41.5,20.41-61.87h47.98ZM342.47,1588.65c-1.46-6.1-3.06-12.19-4.8-18.29-1.75-6.1-3.55-12.13-5.41-18.11-1.98,5.98-3.84,12.02-5.59,18.11-1.75,6.1-3.35,12.19-4.8,18.29h20.6Z"/>
    <path class="auditions" d="M503.77,1588.3c0,7.84-1.21,14.92-3.61,21.25-2.41,6.33-5.92,11.71-10.54,16.15-4.62,4.44-10.32,7.85-17.11,10.23-6.79,2.38-14.57,3.57-23.34,3.57s-15.78-1.13-22.25-3.4c-6.47-2.26-11.92-5.54-16.33-9.84-4.41-4.3-7.77-9.52-10.06-15.68-2.29-6.15-3.44-13.12-3.44-20.9v-76.11h38.32v75.07c0,3.19.38,5.94,1.13,8.23.75,2.29,1.81,4.17,3.18,5.62,1.36,1.45,2.99,2.51,4.88,3.18,1.89.67,3.99,1,6.31,1s4.44-.33,6.36-1c1.92-.67,3.56-1.68,4.92-3.05,1.36-1.36,2.42-3.09,3.18-5.18.75-2.09,1.13-4.56,1.13-7.4v-76.46h37.27v74.72Z"/>
    <path class="auditions" d="M519.44,1513.58c3.02-.12,5.79-.23,8.32-.35,2.53-.12,4.98-.2,7.36-.26,2.38-.06,4.79-.1,7.23-.13,2.44-.03,5.05-.04,7.84-.04,13.29,0,25.12,1.38,35.49,4.14,10.36,2.76,19.07,6.74,26.13,11.93,7.05,5.2,12.42,11.55,16.11,19.07,3.69,7.52,5.53,16.04,5.53,25.56,0,10.16-1.93,19.23-5.79,27.21-3.86,7.98-9.38,14.75-16.55,20.29-7.17,5.54-15.89,9.77-26.17,12.67-10.28,2.9-21.86,4.35-34.75,4.35-2.79,0-5.4-.01-7.84-.04-2.44-.03-4.85-.07-7.23-.13-2.38-.06-4.83-.13-7.36-.22-2.53-.09-5.3-.19-8.32-.3v-123.75ZM557.76,1605.19h1.4c5.3,0,10.11-.68,14.45-2.05,4.34-1.36,8.02-3.35,11.04-5.97,3.03-2.61,5.37-5.82,7.03-9.62,1.66-3.8,2.49-8.14,2.49-13.02,0-4.59-.76-8.68-2.27-12.28-1.51-3.6-3.75-6.63-6.72-9.1-2.97-2.47-6.63-4.34-11-5.62-4.37-1.28-9.37-1.92-15.01-1.92h-1.4v59.57Z"/>
    <path class="auditions" d="M685.25,1637.33h-38.32v-123.75h38.32v123.75Z"/>
    <path class="auditions" d="M794.63,1545.63h-29.61v91.7h-38.32v-91.7h-29.61v-32.05h97.53v32.05Z"/>
    <path class="auditions" d="M844.7,1637.33h-38.32v-123.75h38.32v123.75Z"/>
    <path class="auditions" d="M924.82,1511.4c5.57,0,11.03.6,16.37,1.79,5.34,1.19,10.38,2.96,15.11,5.31,4.73,2.35,9.08,5.28,13.06,8.8,3.98,3.51,7.42,7.61,10.32,12.28,2.9,4.67,5.15,9.91,6.75,15.72,1.6,5.81,2.39,12.16,2.39,19.07,0,7.26-.81,13.9-2.44,19.94-1.63,6.04-3.89,11.47-6.79,16.28-2.9,4.82-6.39,9.04-10.45,12.67-4.07,3.63-8.55,6.65-13.45,9.06-4.91,2.41-10.15,4.21-15.72,5.4-5.57,1.19-11.32,1.79-17.24,1.79-5.57,0-11.03-.6-16.37-1.79-5.34-1.19-10.39-2.96-15.15-5.31-4.76-2.35-9.13-5.28-13.11-8.8-3.98-3.51-7.4-7.61-10.28-12.28-2.87-4.67-5.12-9.91-6.75-15.72-1.63-5.81-2.44-12.16-2.44-19.07s.81-13.82,2.44-19.86c1.62-6.04,3.9-11.47,6.84-16.28,2.93-4.82,6.43-9.04,10.49-12.67,4.06-3.63,8.55-6.65,13.45-9.06,4.9-2.41,10.15-4.22,15.72-5.44,5.57-1.22,11.32-1.83,17.24-1.83ZM923.43,1544.23c-3.25,0-6.42.62-9.49,1.87-3.08,1.25-5.81,3.15-8.19,5.7-2.38,2.56-4.28,5.76-5.7,9.62-1.42,3.86-2.13,8.4-2.13,13.63,0,5.52.72,10.26,2.18,14.24,1.45,3.98,3.38,7.24,5.79,9.8,2.41,2.56,5.2,4.46,8.36,5.7,3.16,1.25,6.46,1.87,9.88,1.87,3.25,0,6.41-.62,9.49-1.87,3.08-1.25,5.81-3.16,8.19-5.75,2.38-2.58,4.28-5.81,5.7-9.67,1.42-3.86,2.13-8.4,2.13-13.63s-.73-10.17-2.18-14.15c-1.45-3.98-3.38-7.24-5.79-9.8-2.41-2.55-5.2-4.46-8.36-5.7-3.16-1.25-6.46-1.87-9.88-1.87Z"/>
    <path class="auditions" d="M1123.55,1637.33h-46.76l-31-55.47c-1.97-3.43-3.72-6.78-5.23-10.06-1.51-3.28-2.82-6.57-3.92-9.88.29,3.31.52,6.63.7,9.97.17,3.34.26,6.66.26,9.97v55.47h-34.83v-123.75h46.76l31,55.47c1.97,3.37,3.72,6.71,5.23,10.01,1.51,3.31,2.82,6.62,3.92,9.93-.29-3.31-.52-6.66-.7-10.06-.17-3.4-.26-6.69-.26-9.88v-55.47h34.83v123.75Z"/>
    <path class="auditions" d="M1147.06,1599.36c4.76,3.02,9.68,5.31,14.76,6.88,5.08,1.57,9.97,2.35,14.67,2.35,1.97,0,3.67-.13,5.09-.39,1.42-.26,2.6-.64,3.53-1.13.93-.49,1.6-1.12,2-1.87.41-.75.61-1.62.61-2.61,0-1.62-.73-3.08-2.18-4.35-1.45-1.28-3.35-2.51-5.7-3.7-2.35-1.19-5.05-2.41-8.1-3.66-3.05-1.25-6.14-2.67-9.27-4.27-3.14-1.6-6.23-3.44-9.27-5.53-3.05-2.09-5.75-4.56-8.1-7.4-2.35-2.84-4.25-6.17-5.7-9.97-1.45-3.8-2.18-8.2-2.18-13.19,0-5.98,1.09-11.38,3.27-16.2,2.18-4.82,5.3-8.93,9.36-12.32,4.06-3.4,8.98-6.01,14.76-7.84,5.78-1.83,12.29-2.74,19.55-2.74s13.34.73,18.94,2.18c5.6,1.45,10.87,3.57,15.81,6.36l-8.17,29.61c-4.11-2.15-8.32-3.9-12.6-5.27-4.29-1.36-8.63-2.05-13.04-2.05-1.51,0-2.85.12-4.04.35-1.19.23-2.19.58-3,1.05-.81.47-1.43,1.05-1.87,1.74-.44.7-.65,1.51-.65,2.44,0,1.51.72,2.86,2.17,4.05,1.45,1.19,3.35,2.35,5.69,3.48,2.35,1.13,5.03,2.31,8.04,3.53,3.01,1.22,6.1,2.61,9.26,4.18,3.16,1.57,6.24,3.4,9.26,5.49,3.01,2.09,5.69,4.59,8.04,7.49,2.35,2.9,4.25,6.27,5.69,10.1,1.45,3.83,2.17,8.3,2.17,13.41,0,6.04-1.19,11.51-3.57,16.42-2.38,4.91-5.7,9.1-9.97,12.58-4.27,3.48-9.38,6.18-15.33,8.1-5.95,1.92-12.5,2.87-19.64,2.87-7.9,0-14.89-.87-20.99-2.61-6.1-1.74-11.76-4.32-16.98-7.75l7.66-29.78Z"/>
  </g>
</svg>
